<svg width="123" height="16" viewBox="0 0 123 16" fill="none" xmlns="http://www.w3.org/2000/svg">
<path d="M0.66 15V0.999999H3.9V15H0.66ZM7.2225 15V0.999999H9.9025L18.1625 11.08H16.8625V0.999999H20.0625V15H17.4025L9.1225 4.92H10.4225V15H7.2225ZM23.3748 15V0.999999H26.0548L34.3148 11.08H33.0148V0.999999H36.2148V15H33.5548L25.2748 4.92H26.5748V15H23.3748ZM46.3272 15.24C45.2205 15.24 44.1939 15.06 43.2472 14.7C42.3139 14.34 41.5005 13.8333 40.8072 13.18C40.1272 12.5267 39.5939 11.76 39.2072 10.88C38.8339 10 38.6472 9.04 38.6472 8C38.6472 6.96 38.8339 6 39.2072 5.12C39.5939 4.24 40.1339 3.47333 40.8272 2.82C41.5205 2.16667 42.3339 1.66 43.2672 1.3C44.2005 0.939999 45.2139 0.76 46.3072 0.76C47.4139 0.76 48.4272 0.939999 49.3472 1.3C50.2805 1.66 51.0872 2.16667 51.7672 2.82C52.4605 3.47333 53.0005 4.24 53.3872 5.12C53.7739 5.98667 53.9672 6.94667 53.9672 8C53.9672 9.04 53.7739 10.0067 53.3872 10.9C53.0005 11.78 52.4605 12.5467 51.7672 13.2C51.0872 13.84 50.2805 14.34 49.3472 14.7C48.4272 15.06 47.4205 15.24 46.3272 15.24ZM46.3072 12.48C46.9339 12.48 47.5072 12.3733 48.0272 12.16C48.5605 11.9467 49.0272 11.64 49.4272 11.24C49.8272 10.84 50.1339 10.3667 50.3472 9.82C50.5739 9.27333 50.6872 8.66667 50.6872 8C50.6872 7.33333 50.5739 6.72667 50.3472 6.18C50.1339 5.63333 49.8272 5.16 49.4272 4.76C49.0405 4.36 48.5805 4.05333 48.0472 3.84C47.5139 3.62667 46.9339 3.52 46.3072 3.52C45.6805 3.52 45.1005 3.62667 44.5672 3.84C44.0472 4.05333 43.5872 4.36 43.1872 4.76C42.7872 5.16 42.4739 5.63333 42.2472 6.18C42.0339 6.72667 41.9272 7.33333 41.9272 8C41.9272 8.65333 42.0339 9.26 42.2472 9.82C42.4739 10.3667 42.7805 10.84 43.1672 11.24C43.5672 11.64 44.0339 11.9467 44.5672 12.16C45.1005 12.3733 45.6805 12.48 46.3072 12.48ZM56.4022 15V0.999999H59.0822L65.0422 10.88H63.6222L69.4822 0.999999H72.1422L72.1822 15H69.1422L69.1222 5.66H69.6822L65.0022 13.52H63.5422L58.7622 5.66H59.4422V15H56.4022ZM73.6637 15L79.9038 0.999999H83.1038L89.3638 15H85.9638L80.8438 2.64H82.1238L76.9838 15H73.6637ZM76.7837 12L77.6438 9.54H84.8438L85.7238 12H76.7837Z" fill="white"/>
<path d="M92.4208 15.16C91.8874 15.16 91.4274 14.98 91.0408 14.62C90.6674 14.2467 90.4808 13.7733 90.4808 13.2C90.4808 12.6267 90.6674 12.1667 91.0408 11.82C91.4274 11.46 91.8874 11.28 92.4208 11.28C92.9674 11.28 93.4274 11.46 93.8008 11.82C94.1741 12.1667 94.3608 12.6267 94.3608 13.2C94.3608 13.7733 94.1741 14.2467 93.8008 14.62C93.4274 14.98 92.9674 15.16 92.4208 15.16ZM100.133 15L94.0934 0.999999H97.5934L102.873 13.4H100.813L106.173 0.999999H109.393L103.333 15H100.133ZM117.106 15.24C116.026 15.24 115.019 15.0667 114.086 14.72C113.166 14.36 112.366 13.8533 111.686 13.2C111.006 12.5467 110.473 11.78 110.086 10.9C109.713 10.02 109.526 9.05333 109.526 8C109.526 6.94667 109.713 5.98 110.086 5.1C110.473 4.22 111.006 3.45333 111.686 2.8C112.379 2.14667 113.186 1.64667 114.106 1.3C115.026 0.939999 116.033 0.76 117.126 0.76C118.339 0.76 119.433 0.973333 120.406 1.4C121.393 1.81333 122.219 2.42667 122.886 3.24L120.806 5.16C120.326 4.61333 119.793 4.20667 119.206 3.94C118.619 3.66 117.979 3.52 117.286 3.52C116.633 3.52 116.033 3.62667 115.486 3.84C114.939 4.05333 114.466 4.36 114.066 4.76C113.666 5.16 113.353 5.63333 113.126 6.18C112.913 6.72667 112.806 7.33333 112.806 8C112.806 8.66667 112.913 9.27333 113.126 9.82C113.353 10.3667 113.666 10.84 114.066 11.24C114.466 11.64 114.939 11.9467 115.486 12.16C116.033 12.3733 116.633 12.48 117.286 12.48C117.979 12.48 118.619 12.3467 119.206 12.08C119.793 11.8 120.326 11.38 120.806 10.82L122.886 12.74C122.219 13.5533 121.393 14.1733 120.406 14.6C119.433 15.0267 118.333 15.24 117.106 15.24Z" fill="#00B1E9"/>
</svg>
